<svg xmlns="http://www.w3.org/2000/svg" xmlns:xlink="http://www.w3.org/1999/xlink" aria-hidden="true" role="img" class="iconify iconify--logos" width="27.64" height="32" preserveAspectRatio="xMidYMid meet" viewBox="0 0 256 296"><path fill="#673AB8" d="m128 0l128 73.9v147.8l-128 74.2L0 221.7V73.9z"></path><path fill="#FFF" d="M34.865 220.478c17.016 21.78 71.095 5.185 122.15-34.704c51.055-39.888 80.24-88.122 63.224-109.902c-17.017-21.78-71.095-5.185-122.15 34.704C47.034 150.464 17.849 198.698 34.865 220.478ZM220.478 34.865c21.78 17.016 5.185 71.095-34.704 122.15c-39.888 51.055-88.122 80.24-109.902 63.224c-21.78-17.017-5.185-71.095 34.704-122.15C150.464 47.034 198.698 17.849 220.478 34.865ZM63.277 63.277c39.889-51.056 88.123-80.24 109.902-63.224c21.78 17.017 5.185 71.095-34.704 122.15s-88.122 80.24-109.902 63.224C11.556 168.410 23.388 114.333 63.277 63.277Z"></path></svg>
